<svg width="460" height="460" viewBox="0 0 460 460" fill="none" xmlns="http://www.w3.org/2000/svg">
<path fill-rule="evenodd" clip-rule="evenodd" d="M125.753 413.913C133.925 413.915 142.012 412.237 149.512 408.984L368.034 315.427C400.595 301.673 421.753 269.698 421.723 234.289V115.176C421.568 81.7769 394.658 54.7337 361.5 54.7337C353.52 54.6628 345.613 56.2623 338.285 59.4298L118.797 153.402C86.4952 167.257 65.5521 199.08 65.5642 234.289V353.185C65.5642 386.715 92.4824 413.913 125.753 413.913ZM387.236 316.37C386.361 316.905 386.034 318.018 386.48 318.944C386.926 319.869 388 320.304 388.962 319.95C398.669 316.205 407.516 310.524 414.966 303.25C433.046 285.772 442.773 266.063 434.738 262.837C426.703 259.611 420.929 284.976 408.312 299.341C402.932 305.51 395.907 311.186 387.236 316.37ZM381.92 327.318C380.499 327.198 379.073 327.16 377.648 327.206C376.59 327.228 375.734 328.075 375.698 329.134C375.661 330.193 376.456 331.097 377.51 331.193C378.373 331.271 379.193 331.366 380.03 331.469C390.093 332.749 399.88 338.535 400.933 334.799C401.986 331.063 392.268 328.2 381.92 327.318ZM367.067 30.0084C367.067 17.6241 359.671 19.9677 359.671 30.0084C359.671 33.9808 357.165 39.0256 352.154 45.1428C351.488 45.9372 351.539 47.1102 352.273 47.8427C353.006 48.5751 354.177 48.6233 354.967 47.9535C363.028 41.3462 367.061 35.3645 367.067 30.0084ZM397.955 54.0246C413.188 61.955 423.846 82.7368 428.705 77.7814C433.564 72.8259 426.211 57.6742 405.17 46.7773C394.192 41.0926 382.973 39.7694 371.512 42.8078C370.562 43.0347 369.918 43.9203 369.993 44.8959C370.068 45.8716 370.84 46.6475 371.814 46.7255C380.92 47.4227 389.801 49.9025 397.955 54.0246ZM35.0472 231.158C38.328 232.973 41.4238 235.105 44.2903 237.523C44.991 238.15 46.0332 238.202 46.7923 237.648C47.5514 237.093 47.8214 236.083 47.4404 235.223C45.487 230.756 42.2358 226.983 38.111 224.395C28.6175 218.342 21.1436 218.938 20.7293 224.395C20.3151 229.852 27.8235 227.215 35.0472 231.158ZM63.3808 187.666C75.0577 166.21 93.4922 153.445 84.3612 144.425C75.2303 135.405 51.4535 149.406 46.3185 174.374C43.528 187.917 44.7132 203.74 49.8742 221.844C50.1267 222.793 51.0321 223.415 52.0061 223.309C52.98 223.203 53.7313 222.401 53.7751 221.42C54.4039 209.588 57.6872 198.051 63.3808 187.666ZM74.0393 402.844C62.4487 389.171 58.5736 366.521 46.0854 370.845C33.5973 375.169 35.8153 394.109 57.305 409.226C68.3602 417.082 81.368 421.721 94.8903 422.631C95.8592 422.714 96.7463 422.084 96.9897 421.14C97.2331 420.197 96.7617 419.215 95.8742 418.817C87.4852 415.214 80.02 409.753 74.0393 402.844ZM95.9346 438.743C97.2464 440.014 100.983 434.159 108.88 429.982L109.044 429.895C109.969 429.415 110.368 428.302 109.961 427.341C109.554 426.381 108.478 425.896 107.491 426.228C106.222 426.652 105.031 427.093 103.909 427.569C93.7338 431.824 94.6142 437.523 95.9346 438.743Z" fill="#FFF6F3"/>
<path fill-rule="evenodd" clip-rule="evenodd" d="M436.371 320.188H23.6294C21.5388 320.188 19.8499 319.995 19.8499 319.756C19.8499 319.517 21.5388 319.325 23.6294 319.325H436.371C438.461 319.325 440.15 319.518 440.15 319.756C440.15 319.994 438.425 320.188 436.371 320.188Z" fill="#99A2A7"/>
<path d="M210.012 322.585H327.955L310.749 202.444H227.206L210.012 322.585Z" fill="#FC4C02"/>
<path opacity="0.1" d="M227.206 202.444L240.317 322.598H210.012L227.206 202.444Z" fill="#263238"/>
<path d="M286.611 210.859C286.611 210.759 284.463 200.686 282.177 190.526C280.281 182.048 271.854 178.142 264.821 179.285C262.309 179.687 254.296 181.797 255.338 192.184C256.594 204.115 257.461 209.879 257.474 209.942L252.45 210.746C252.45 210.507 251.495 204.793 250.277 192.686C249.31 183.028 254.685 175.832 263.954 174.324C273.223 172.817 284.476 178.092 287.025 189.395C289.311 199.581 291.446 209.678 291.459 209.779L286.611 210.859Z" fill="#C93C01"/>
<path d="M238.748 321.668C236.073 320.412 233.461 318.968 230.848 317.561L226.98 315.388C225.724 314.647 224.38 313.944 223.112 313.178H223.614C221.58 314.622 219.595 316.117 217.523 317.524C215.451 318.93 213.416 320.349 211.306 321.681C213.203 320.06 215.162 318.503 217.121 316.971C219.08 315.439 221.09 313.957 223.074 312.437L223.3 312.261L223.577 312.412C224.832 313.128 226.088 313.907 227.42 314.648L231.187 316.921C233.724 318.453 236.236 320.01 238.748 321.668Z" fill="white"/>
<path d="M223.313 312.789L223.476 301.272L223.74 289.768L224.418 266.747L225.31 243.738L225.825 232.247L226.453 220.743L226.289 232.259L226.026 243.764L225.36 266.784L224.468 289.793L223.941 301.284L223.313 312.789Z" fill="white"/>
<path d="M284.061 210.344C284.061 211.338 284.355 212.309 284.908 213.135C285.46 213.961 286.244 214.605 287.162 214.985C288.08 215.365 289.09 215.465 290.065 215.271C291.039 215.077 291.934 214.599 292.637 213.896C293.339 213.194 293.818 212.299 294.012 211.324C294.205 210.35 294.106 209.339 293.726 208.422C293.346 207.504 292.702 206.719 291.876 206.167C291.049 205.615 290.078 205.32 289.085 205.32C287.752 205.32 286.474 205.85 285.532 206.792C284.59 207.734 284.061 209.012 284.061 210.344Z" fill="#932C02"/>
<path d="M250.365 210.344C250.365 211.338 250.659 212.309 251.211 213.135C251.763 213.961 252.548 214.605 253.466 214.985C254.384 215.365 255.394 215.465 256.368 215.271C257.343 215.077 258.238 214.599 258.941 213.896C259.643 213.194 260.122 212.299 260.315 211.324C260.509 210.35 260.41 209.339 260.03 208.422C259.649 207.504 259.005 206.719 258.179 206.167C257.353 205.615 256.382 205.32 255.388 205.32C254.056 205.32 252.778 205.85 251.836 206.792C250.894 207.734 250.365 209.012 250.365 210.344Z" fill="#932C02"/>
<path d="M255.29 323.257H132.908L150.762 198.595H237.449L255.29 323.257Z" fill="#FF7439"/>
<path opacity="0.1" d="M237.449 198.595L223.844 323.27H255.29L237.449 198.595Z" fill="#263238"/>
<path d="M175.809 207.327C175.809 207.223 178.037 196.771 180.409 186.228C182.377 177.432 191.121 173.379 198.419 174.565C201.025 174.982 209.34 177.171 208.258 187.949C206.955 200.329 206.056 206.31 206.043 206.376L211.255 207.21C211.255 206.962 212.246 201.033 213.51 188.47C214.513 178.449 208.936 170.981 199.318 169.417C189.701 167.854 178.024 173.327 175.379 185.056C173.007 195.624 170.792 206.102 170.779 206.206L175.809 207.327Z" fill="#DD4100"/>
<path d="M225.473 322.306C228.249 321.003 230.959 319.504 233.67 318.045L237.684 315.79C238.987 315.021 240.381 314.292 241.697 313.497H241.176C243.287 314.995 245.346 316.546 247.497 318.006C249.647 319.465 251.758 320.938 253.947 322.319C251.979 320.638 249.947 319.022 247.914 317.432C245.881 315.842 243.796 314.305 241.737 312.728L241.502 312.545L241.215 312.702C239.912 313.445 238.609 314.253 237.227 315.021L233.318 317.38C230.686 318.97 228.079 320.586 225.473 322.306Z" fill="white"/>
<path d="M241.489 313.093L241.319 301.143L241.046 289.206L240.342 265.318L239.417 241.444L238.882 229.52L238.231 217.583L238.4 229.533L238.674 241.47L239.365 265.358L240.29 289.232L240.837 301.156L241.489 313.093Z" fill="white"/>
<path d="M178.454 206.793C178.454 207.824 178.148 208.832 177.576 209.689C177.003 210.546 176.189 211.214 175.236 211.609C174.284 212.003 173.236 212.106 172.225 211.905C171.213 211.704 170.285 211.208 169.556 210.479C168.827 209.75 168.33 208.821 168.129 207.81C167.928 206.799 168.031 205.75 168.426 204.798C168.82 203.845 169.488 203.031 170.345 202.459C171.203 201.886 172.211 201.58 173.242 201.58C174.624 201.58 175.95 202.129 176.927 203.107C177.905 204.084 178.454 205.41 178.454 206.793Z" fill="#CA3B00"/>
<path d="M213.418 206.793C213.418 207.824 213.113 208.832 212.54 209.689C211.967 210.546 211.153 211.214 210.2 211.609C209.248 212.003 208.2 212.106 207.189 211.905C206.178 211.704 205.249 211.208 204.52 210.479C203.791 209.75 203.294 208.821 203.093 207.81C202.892 206.799 202.995 205.75 203.39 204.798C203.784 203.845 204.452 203.031 205.31 202.459C206.167 201.886 207.175 201.58 208.206 201.58C209.588 201.58 210.914 202.129 211.892 203.107C212.869 204.084 213.418 205.41 213.418 206.793Z" fill="#CA3B00"/>
<path d="M291.969 247.729H176.75V329.531H291.969V247.729Z" fill="#37474F"/>
<path d="M176.75 329.532H215.982V247.729H176.75V329.532Z" fill="#263238"/>
<path d="M179.458 323.844C182.377 318.025 185.257 312.192 188.098 306.346L196.61 288.746L205.006 271.068C207.804 265.171 210.564 259.253 213.286 253.313C210.385 259.125 207.505 264.962 204.646 270.824L196.135 288.412L187.739 306.09C184.957 312.021 182.197 317.939 179.458 323.844Z" fill="#37474F"/>
<path d="M179.458 253.365C182.188 259.296 184.949 265.215 187.739 271.12L196.135 288.798L204.646 306.398C207.496 312.252 210.376 318.085 213.286 323.896C210.556 317.965 207.796 312.047 205.006 306.141L196.61 288.464L188.098 270.876C185.248 265.013 182.368 259.176 179.458 253.365Z" fill="#37474F"/>
<path d="M304.614 265.984H228.64L215.995 247.729H291.969L304.614 265.984Z" fill="#455A64"/>
<path d="M203.337 265.985H164.117L176.762 247.729H215.995L203.337 265.985Z" fill="#455A64"/>
<path d="M84.7411 317.894C92.3 310.072 99.141 301.587 105.182 292.541L98.6376 281.98L59.1271 283.304L53.5336 293.888C53.5336 293.888 57.1464 296.851 59.1825 298.642C61.7099 300.86 64.3085 302.976 66.9547 305.036C72.6194 309.441 78.4664 313.568 84.3371 317.641L84.7411 317.894Z" fill="#33454F"/>
<path d="M96.1578 298.245C100.991 295.243 105.776 292.264 111.718 290.323C113.744 289.601 115.843 289.104 117.977 288.841C131.295 287.455 137.324 300.963 128.142 308.181C119.649 314.867 104.516 324.264 76.5253 326.894C75.8281 326.965 64.3402 328.78 65.0453 328.724C65.7504 328.669 48.9622 330.546 48.9622 330.546L45.7932 319.756C63.5878 315.219 80.5759 307.963 96.1578 298.245Z" fill="#4D5D66"/>
<path d="M47.9164 315.993C51.5925 316.935 54.3892 315.842 56.0847 317.007C58.6992 318.813 55.0151 320.025 55.0151 320.025C59.2379 320.604 58.4694 327.695 56.4571 328.202C55.9494 328.332 55.4494 328.49 54.9597 328.677C55.9342 329.224 56.8453 330.079 56.156 330.982C53.4861 334.532 48.1303 329.192 43.4797 332.187C42.2108 332.994 40.7898 333.534 39.3044 333.771C36.9233 334.143 34.5046 333.385 32.7621 331.72C31.0195 330.055 30.1519 327.674 30.4151 325.278L31.1203 318.639C31.3577 316.265 32.6809 314.135 34.7038 312.87C36.7266 311.605 39.2212 311.348 41.4594 312.174C44.6206 313.394 45.698 315.414 47.9164 315.993Z" fill="#8A5123"/>
<path d="M47.3381 318.789C47.6013 318.92 47.7929 319.161 47.861 319.447C48.3396 322.324 48.0246 325.276 46.9499 327.987C46.8202 328.252 46.5838 328.448 46.3002 328.526C45.9535 328.622 45.5824 328.521 45.3306 328.265C45.0789 328.008 44.986 327.635 45.088 327.29C45.4647 326.073 45.7299 324.824 45.8803 323.559C45.9948 322.288 45.9948 321.01 45.8803 319.74C45.8456 319.376 46.0155 319.023 46.3216 318.824C46.6277 318.624 47.0192 318.611 47.3381 318.789Z" fill="white"/>
<path d="M42.624 318.306C42.8854 318.441 43.0738 318.684 43.139 318.971C43.4316 320.395 43.4771 321.858 43.2737 323.297C43.1665 324.749 42.8128 326.171 42.2279 327.504C42.1034 327.835 41.8116 328.075 41.4625 328.133C41.1135 328.19 40.7601 328.057 40.5356 327.784C40.3111 327.51 40.2495 327.138 40.374 326.807C40.7469 325.589 41.012 324.34 41.1663 323.075C41.2807 321.805 41.2807 320.527 41.1663 319.257C41.1315 318.893 41.3015 318.54 41.6076 318.34C41.9136 318.141 42.3052 318.127 42.624 318.306Z" fill="white"/>
<path d="M51.7193 319.28C51.9781 319.415 52.166 319.654 52.2343 319.938C52.7128 322.815 52.3978 325.767 51.3232 328.479C51.1935 328.743 50.9571 328.939 50.6735 329.017C50.3268 329.113 49.9557 329.013 49.7039 328.756C49.4521 328.499 49.3593 328.126 49.4613 327.781C49.8387 326.562 50.1039 325.31 50.2536 324.042C50.368 322.774 50.368 321.499 50.2536 320.231C50.2168 319.865 50.3877 319.509 50.6965 319.309C51.0052 319.108 51.4 319.097 51.7193 319.28Z" fill="white"/>
<path d="M63.5162 298.388C58.6517 295.433 53.8426 292.509 47.8768 290.6C45.843 289.902 43.7389 289.429 41.602 289.19C28.276 287.938 22.3816 301.51 31.6353 308.632C40.1997 315.224 55.4034 324.478 83.4497 326.807C84.1469 326.862 95.6507 328.558 94.9456 328.51C94.2405 328.463 111.045 330.166 111.045 330.166L114.111 319.352C96.2688 315.005 79.2037 307.934 63.5162 298.388Z" fill="#66737B"/>
<path d="M114.499 253.34C116.194 251.573 120.045 246.574 117.803 244.165C117.219 243.554 116.849 242.77 116.749 241.931C116.301 241.889 115.866 241.763 115.465 241.559C110.086 238.112 89.7245 215.026 83.8776 213.631C80.7142 212.728 77.3088 213.476 74.814 215.62C74.3885 215.962 74.0651 216.414 73.8791 216.927C73.106 219.797 73.6333 222.862 75.3211 225.309C78.0068 229.271 108.414 253.15 111.94 254.996C112.439 255.138 112.958 255.197 113.477 255.17C113.647 254.479 114 253.847 114.499 253.34Z" fill="#C93C01"/>
<path d="M124.299 215.255C123.792 218.575 122.105 223.804 120.877 227.401C119.294 231.983 117.984 236.655 116.955 241.392C119.914 244.345 123.41 246.706 127.254 248.348C127.841 243.983 128.371 239.634 128.958 235.252C129.449 231.576 130.186 227.94 130.97 224.319C131.35 222.528 131.762 220.738 132.143 218.947C132.404 217.703 133.157 216.032 131.43 215.731C130.637 215.588 129.782 215.596 128.958 215.509C127.389 215.358 125.844 215.287 124.299 215.255Z" fill="#99A2A7"/>
<path fill-rule="evenodd" clip-rule="evenodd" d="M133.394 216.206C133.442 216.135 133.482 216.063 133.521 215.992C134.09 215.214 134.504 214.335 134.741 213.401C135.579 211.254 136.208 209.03 136.619 206.762C136.976 204.797 137.269 203.181 135.724 201.699C134.179 200.218 132.42 198.657 130.273 198.427C127.682 198.15 128.364 203.062 127.841 204.623C127.516 205.597 126.716 207.792 126.106 209.503C125.885 209.452 125.694 209.315 125.575 209.123C123.562 206.239 119.237 206.136 120.821 208.228C121.542 209.163 122.715 210.288 122.778 211.611C122.873 213.877 124.481 216.943 126.264 217.949C129.718 218.9 131.992 217.862 133.355 216.166L133.394 216.206Z" fill="#99A2A7"/>
<path d="M115.56 257.095C117.278 257.542 119.088 257.484 120.774 256.929C123.405 255.978 125.47 253.895 126.399 251.256C129.092 243.975 133.981 227.084 134.218 220.207C134.239 219.513 133.764 218.901 133.085 218.749C130.083 218.095 127.174 217.067 124.426 215.691C123.998 215.5 123.504 215.527 123.1 215.765C122.695 216.002 122.431 216.421 122.39 216.888C121.796 223.432 116.361 244.466 113.746 246.312C113.501 246.479 113.199 246.669 112.867 246.859C112.665 247.175 112.423 247.463 112.146 247.715C111.475 248.349 110.887 249.065 110.395 249.846C110.164 250.784 110.052 251.748 110.062 252.714C110.91 254.901 113.453 256.612 115.56 257.095Z" fill="#C93C01"/>
<path d="M86.5237 218.963C85.676 217.696 84.7491 216.341 83.9964 215.129V215.081C83.0615 213.576 82.293 214.027 82.3722 213.536C81.7701 213.433 80.447 212.086 79.9954 211.73C79.2586 209.884 77.3413 202.46 79.2032 199.846C80.5738 197.889 65.3384 196.542 65.3384 196.542L65.8851 200.741C65.8851 200.741 66.4318 207.428 66.6378 209.876C66.6378 210.003 66.6378 210.121 66.6378 210.217C66.6378 210.438 66.6378 210.597 66.6774 210.684C66.717 210.771 71.9143 223.059 86.5237 218.963Z" fill="#CCD0D3"/>
<path d="M65.283 212.894C64.055 215.509 69.0067 225.927 71.9301 226.109C74.8536 226.291 88.1004 224.144 88.9719 223.312C89.2333 223.059 87.9895 221.158 86.5238 218.963C71.9143 223.059 66.6378 210.676 66.6378 210.676C66.717 211.65 66.3209 212.015 65.283 212.894Z" fill="#99A2A7"/>
<path fill-rule="evenodd" clip-rule="evenodd" d="M87.0149 189.649C87.0149 189.649 90.4851 186.48 90.4772 184.65C90.4692 182.82 87.9102 183.493 87.9102 183.493C87.9102 183.493 91.8082 179.651 91.8716 176.22C91.9349 172.79 88.3935 174.034 88.3935 174.034C89.4867 171.891 89.1054 169.291 87.4428 167.553C88.2304 166.459 88.451 165.056 88.037 163.774C88.021 163.696 87.9696 163.63 87.898 163.596C87.8265 163.562 87.743 163.563 87.6725 163.599C87.3635 163.694 87.2526 165.406 85.2957 165.358C85.2957 165.358 84.5034 159.377 79.7498 162.142C79.7498 162.142 76.6679 156.089 71.4944 160.462C71.4944 160.462 61.1949 156.651 57.6851 165.849C57.6851 165.849 51.3469 164.582 51.545 171.498C51.545 171.498 48.3125 172.996 50.4675 178.28C50.4675 178.28 48.3363 176.307 47.4807 176.775C46.625 177.242 48.4472 181.148 50.5943 182.748C50.5943 182.748 48.3601 181.758 48.0828 182.994C47.8055 184.23 50.0555 186.464 51.4499 186.813C50.9043 187.261 50.6589 187.979 50.8161 188.667C50.9983 189.974 54.1199 192.787 58.3981 193.373C62.6764 193.959 76.3748 195.908 87.0149 189.649Z" fill="#8A5123"/>
<path fill-rule="evenodd" clip-rule="evenodd" d="M87.0149 189.649C87.0149 189.649 90.4851 186.48 90.4772 184.65C90.4692 182.82 87.9102 183.493 87.9102 183.493C87.9102 183.493 91.8082 179.651 91.8716 176.22C91.8716 174.976 91.4437 174.35 90.8654 174.049C90.8654 174.049 92.0062 175.879 89.3759 177.218C86.7456 178.557 77.7929 176.846 74.2752 174.208C74.2752 174.208 73.2374 177.947 69.3235 178.05C66.6148 178.067 64.0799 176.718 62.5813 174.461C62.5813 174.461 60.2758 178.771 55.4509 178.003C52.7838 177.622 50.6606 175.576 50.1823 172.924C49.6515 173.962 49.39 175.65 50.4596 178.272C50.4596 178.272 48.3284 176.299 47.4727 176.767C46.6171 177.234 48.4393 181.14 50.5863 182.741C50.5863 182.741 48.3521 181.75 48.0749 182.986C47.7976 184.222 50.0476 186.456 51.442 186.805C50.8964 187.253 50.6509 187.971 50.8082 188.659C50.9904 189.966 54.112 192.779 58.3902 193.365C62.6685 193.951 76.3747 195.908 87.0149 189.649Z" fill="#8A5123"/>
<path fill-rule="evenodd" clip-rule="evenodd" d="M86.1989 187.272C84.5092 187.507 83.1279 188.738 82.6997 190.389C82.2715 192.04 82.881 193.787 84.2436 194.813C85.6061 195.84 87.4531 195.944 88.9222 195.077C90.3913 194.209 91.1928 192.542 90.9525 190.853C90.6254 188.554 88.4995 186.952 86.1989 187.272Z" fill="#99A2A7"/>
<path fill-rule="evenodd" clip-rule="evenodd" d="M57.5979 191.337C55.9083 191.572 54.5269 192.802 54.0987 194.453C53.6706 196.105 54.28 197.851 55.6426 198.878C57.0052 199.904 58.8521 200.008 60.3212 199.141C61.7903 198.274 62.5918 196.607 62.3516 194.918C62.0244 192.618 59.8985 191.017 57.5979 191.337Z" fill="#99A2A7"/>
<path fill-rule="evenodd" clip-rule="evenodd" d="M69.8544 168.06C61.9683 169.2 56.4845 176.496 57.5821 184.389L59.4281 197.382C60.5723 205.265 67.8659 210.747 75.7568 209.654C83.644 208.51 89.1269 201.211 88.0291 193.317L86.1831 180.324C85.035 172.444 77.7427 166.967 69.8544 168.06Z" fill="#CCD0D3"/>
<path fill-rule="evenodd" clip-rule="evenodd" d="M64.1897 170.143C59.3917 173.197 56.8208 178.773 57.6138 184.404L59.4598 197.398C60.604 205.281 67.8975 210.763 75.7885 209.67C77.544 209.417 79.2383 208.845 80.7877 207.982C66.82 210.074 63.9124 200.781 62.7873 192.826C61.1156 181.077 74.5446 183.485 85.0581 181.988C85.5255 181.925 85.9771 181.845 86.4128 181.766L86.2148 180.34C86.0384 179.088 85.6947 177.864 85.1927 176.703C79.0368 173.946 70.5674 170.452 66.7804 170.223L64.3402 170.08L64.261 170.136C64.3085 170.136 64.3164 170.143 64.1897 170.143Z" fill="#99A2A7"/>
<path fill-rule="evenodd" clip-rule="evenodd" d="M59.0478 183.152L59.6737 187.549C59.9193 189.277 59.6737 189.831 58.8815 190.584C58.8815 190.584 59.6737 192.168 58.7388 192.707C58.6217 191.933 57.9361 191.374 57.1543 191.416L55.5698 180.062C56.4333 181.147 57.6552 181.889 59.0161 182.154C58.9916 182.487 59.0022 182.822 59.0478 183.152Z" fill="#8A5123"/>
<path fill-rule="evenodd" clip-rule="evenodd" d="M65.584 180.063C65.584 180.063 71.4865 182.741 74.9011 179.231C76.4223 181.734 82.1663 184.095 80.0588 179.461C83.2279 180.855 82.6337 179.025 81.7226 178.589C81.7226 178.589 84.6223 179.888 86.2465 179.492C93.3056 177.773 81.9682 167.886 79.8053 166.285C79.8053 166.285 64.7046 166.444 64.1659 167.331C63.9757 167.648 63.4212 168.282 62.7794 169.05C61.645 169.271 60.5317 169.589 59.4519 170.001C59.0399 170.286 54.3972 174.984 53.6287 175.919C52.8602 176.854 51.0221 188.255 58.0813 187.906C65.1404 187.558 65.584 180.063 65.584 180.063Z" fill="#8A5123"/>
<path fill-rule="evenodd" clip-rule="evenodd" d="M55.1895 289.982C58.2952 293.365 65.2196 293.397 72.6194 294.443C74.3941 294.688 76.0499 294.847 77.4602 294.91C78.3254 294.962 79.1937 294.901 80.043 294.728C86.9833 294.553 93.3452 293.531 97.259 292.264C98.1213 291.954 98.9993 291.689 99.8894 291.472C101.097 291.325 102.175 290.641 102.821 289.61C105.602 284.642 99.8814 284.341 98.7802 279.453C96.34 268.662 96.7044 262.482 96.752 251.501C96.7916 241.313 97.2986 230.11 92.2043 220.896C91.3742 219.349 90.3226 217.932 89.0828 216.689C87.6918 215.482 86.0987 214.53 84.3767 213.877C83.6714 213.489 82.9134 213.206 82.1267 213.037C81.1839 212.839 80.756 211.325 79.837 211.722C79.837 211.722 82.8476 218.773 78.9417 221.712L78.7833 221.807C78.2898 222.09 77.7552 222.293 77.1987 222.409C72.968 222.948 66.5506 217.394 65.3781 212.902C64.0946 213.631 62.9141 214.59 61.6069 215.279C58.9131 216.626 56.1877 217.949 53.6208 219.533C52.1472 220.444 49.3267 221.958 49.0652 223.899C47.5203 235.371 52.5433 245.694 55.1182 256.564C56.8453 263.853 58.5725 271.063 57.495 278.47C56.5522 284.761 51.4024 285.854 55.1895 289.982Z" fill="#FC4C02"/>
<path opacity="0.15" d="M90.1524 311.5C89.9622 310.082 88.4252 308.941 87.0625 307.943C86.5766 307.614 86.123 307.24 85.7077 306.826C85.169 306.168 84.1232 304.782 83.2596 303.72C85.0005 303.479 86.543 302.474 87.4666 300.979C87.7811 300.469 87.7811 299.825 87.4666 299.315C87.0553 298.788 86.3753 298.547 85.7236 298.697C85.4938 298.697 85.2482 298.745 84.9867 298.776C84.0897 299.002 83.1456 298.952 82.2772 298.634C81.4969 298.209 80.6548 297.91 79.7815 297.747C79.8213 297.562 79.8372 297.373 79.8291 297.184C79.8097 296.511 79.4972 295.88 78.9734 295.457C71.843 289.634 58.7071 273.535 58.6596 271.19C58.6041 268.607 59.8955 261.944 61.2662 254.893C63.5638 243.009 65.9485 230.72 64.5382 226.926C63.3909 223.404 60.5613 220.687 56.9958 219.684C56.2996 219.466 55.5566 219.444 54.8488 219.621C53.3339 220.095 51.9467 220.908 50.7924 221.998C52.8523 222.473 54.5953 224.129 55.1815 226.886C56.4016 232.614 57.487 238.635 57.1543 244.522C56.8532 249.846 56.362 254.924 56.6076 260.248C56.6635 261.281 56.6476 262.316 56.5601 263.346C56.6081 263.489 56.6477 263.634 56.6789 263.782L56.8928 265.026C56.8966 265.055 56.8966 265.084 56.8928 265.113C57.1147 266.373 57.3048 267.64 57.3999 268.916C57.3999 269.003 57.3999 269.09 57.3999 269.185C57.4884 269.497 57.5337 269.82 57.5346 270.144C57.5346 270.437 57.5346 270.738 57.5346 271.039C57.6908 272.138 57.7359 273.25 57.6693 274.359C57.6023 275.573 57.0272 276.703 56.0847 277.472C56.877 279.168 57.7247 280.871 58.6358 282.575C62.6606 290.141 69.3553 296.313 74.4337 303.174C75.1782 304.052 75.3875 305.265 74.9804 306.343C75.4849 307.678 75.2567 309.179 74.3782 310.304C75.5043 311.698 76.7331 313.007 78.0544 314.218C79.322 315.39 80.5342 316.5 82.3247 316.5C82.7312 316.498 83.1358 316.444 83.529 316.341C85.9058 315.747 88.1717 315.058 89.6374 313.172C90.0324 312.71 90.2188 312.105 90.1524 311.5Z" fill="black"/>
<path d="M108.913 331.465C105.308 330.293 102.448 331.22 100.832 329.952C98.3286 327.995 102.076 327.005 102.076 327.005C97.9007 326.165 99.0971 319.138 101.133 318.757C101.65 318.658 102.161 318.528 102.662 318.369C101.719 317.767 100.864 316.856 101.601 315.992C104.484 312.617 109.523 318.266 114.317 315.565C115.633 314.833 117.087 314.386 118.587 314.249C120.984 314.022 123.35 314.925 124.987 316.691C126.624 318.457 127.345 320.884 126.937 323.258L125.828 329.841C125.452 332.199 124.003 334.248 121.906 335.39C119.809 336.531 117.301 336.636 115.117 335.672C112.051 334.238 111.092 332.155 108.913 331.465Z" fill="#AD662C"/>
<path d="M109.666 328.669C109.41 328.521 109.235 328.264 109.191 327.972C108.99 326.53 109.032 325.065 109.317 323.638C109.512 322.198 109.952 320.802 110.617 319.51C110.759 319.251 111.008 319.068 111.298 319.011C111.651 318.932 112.018 319.053 112.255 319.326C112.492 319.599 112.559 319.98 112.431 320.318C111.981 321.51 111.641 322.741 111.417 323.994C111.222 325.255 111.137 326.53 111.163 327.805C111.168 328.164 110.978 328.497 110.668 328.676C110.357 328.855 109.974 328.852 109.666 328.669Z" fill="white"/>
<path d="M114.34 329.453C114.091 329.302 113.918 329.051 113.865 328.764C113.557 325.863 114.053 322.933 115.299 320.294C115.441 320.039 115.686 319.857 115.972 319.795C116.324 319.722 116.688 319.845 116.923 320.116C117.158 320.388 117.228 320.765 117.105 321.102C116.662 322.299 116.326 323.531 116.099 324.787C115.896 326.046 115.811 327.322 115.846 328.597C115.849 328.957 115.657 329.29 115.345 329.468C115.032 329.646 114.648 329.64 114.34 329.453Z" fill="white"/>
<path d="M105.324 327.932C105.075 327.781 104.902 327.53 104.849 327.243C104.541 324.342 105.037 321.412 106.283 318.773C106.425 318.518 106.67 318.336 106.956 318.274C107.308 318.201 107.672 318.324 107.907 318.595C108.142 318.867 108.212 319.244 108.089 319.582C107.646 320.778 107.309 322.01 107.083 323.266C106.88 324.522 106.795 325.796 106.83 327.068C106.836 327.43 106.646 327.766 106.332 327.945C106.019 328.125 105.633 328.12 105.324 327.932Z" fill="white"/>
<path d="M76.3747 298.19C73.8395 295.987 70.3218 291.765 67.9371 288.809C64.9143 285.017 61.6682 281.409 58.2159 278.003C54.0565 279.017 50.6577 279.968 47.4014 282.305C50.7686 285.125 53.6366 288.58 57.0037 291.408C59.848 293.785 62.5496 296.352 65.172 298.951L69.0859 302.817C69.9891 303.704 71.0032 305.194 72.1836 303.934C72.7382 303.316 73.174 302.611 73.689 301.961C74.6397 300.749 75.527 299.481 76.3747 298.19Z" fill="#CCD0D3"/>
<path fill-rule="evenodd" clip-rule="evenodd" d="M70.7179 305.368L70.8209 305.59C71.1812 306.472 71.7054 307.279 72.3659 307.967C73.7323 309.824 75.2766 311.543 76.9769 313.101C78.4426 314.447 79.6547 315.564 81.7305 315.042C83.8062 314.519 86.0642 313.885 87.4111 312.197C88.9956 310.153 84.5114 308.101 83.4497 306.826C82.7921 306.033 81.3423 304.164 80.2806 302.753C80.4438 302.594 80.6623 302.503 80.8907 302.5C84.4004 302.341 86.8089 298.737 84.1786 298.982C83.006 299.085 81.4215 299.481 80.2727 298.824C78.3 297.699 74.8536 297.414 73.0314 298.372C70.3852 300.749 70.0366 303.261 70.7417 305.32L70.7179 305.368Z" fill="#CCD0D3"/>
<path d="M76.6996 298.087C77.1226 297.829 77.3927 297.381 77.4227 296.887C77.4527 296.392 77.2388 295.914 76.8501 295.607C71.4944 291.234 56.3145 274.113 56.2511 270.746C56.1085 264.012 64.3798 232.677 62.1773 226.743C61.1145 223.445 58.4649 220.903 55.1261 219.977C54.5819 219.805 54.0008 219.786 53.4465 219.922C50.478 220.922 48.1013 223.18 46.9498 226.094C45.0325 230.784 41.9744 271.364 42.4181 275.531C42.624 277.401 59.6103 298.626 67.018 303.99C67.6098 304.41 68.4158 304.353 68.9433 303.855C71.2791 301.618 73.8846 299.68 76.6996 298.087Z" fill="#C93C01"/>
<path d="M373.516 320.846C366.163 313.287 358.177 307.377 352.196 298.464L359.976 285.788L398.472 287.079L404.557 298.686C404.557 298.686 400.397 300.27 398.417 302.021C395.953 304.184 393.425 306.252 390.843 308.248C385.297 312.543 379.632 316.559 373.912 320.537L373.516 320.846Z" fill="#33454F"/>
<path d="M390.534 327.358C390.534 327.358 401.118 329.228 404.47 331.985C405.595 332.904 407.464 332.943 409.516 334.068C412.685 335.827 417.098 336.691 419.816 335.558C421.202 334.972 421.179 335.645 421.662 334.227C423.044 330.015 421.069 325.434 417.059 323.547C414.234 322.197 411.181 321.391 408.059 321.17C398.409 320.418 393.592 317.249 393.592 317.249L390.534 327.358Z" fill="#99A2A7"/>
<path d="M408.225 335.059C404.779 333.728 401.95 334.465 400.437 333.149C398.108 331.105 401.808 330.353 401.808 330.353C397.791 329.315 399.336 322.533 401.34 322.279C401.879 322.208 402.37 322.097 402.846 321.986C401.966 321.345 401.182 320.402 401.942 319.61C404.937 316.48 409.509 322.256 414.341 319.879C415.659 319.244 417.094 318.888 418.556 318.833C420.902 318.739 423.157 319.744 424.656 321.55C426.156 323.357 426.727 325.759 426.202 328.047L424.76 334.385C424.265 336.656 422.747 338.57 420.647 339.567C418.548 340.564 416.105 340.532 414.032 339.48C411.125 337.943 410.309 335.851 408.225 335.059Z" fill="#8A5123"/>
<path d="M409.104 332.389C408.863 332.234 408.706 331.977 408.677 331.692C408.535 328.854 409.174 326.032 410.523 323.531C410.8 323.124 411.337 322.988 411.775 323.214C412.213 323.44 412.413 323.957 412.242 324.419C411.744 325.556 411.349 326.736 411.061 327.944C410.798 329.158 410.647 330.394 410.61 331.636C410.597 331.987 410.394 332.302 410.08 332.459C409.767 332.616 409.392 332.589 409.104 332.389Z" fill="white"/>
<path d="M413.612 333.411C413.374 333.253 413.217 332.998 413.185 332.714C413.043 329.876 413.682 327.054 415.031 324.553C415.184 324.31 415.435 324.145 415.72 324.102C416.067 324.05 416.415 324.191 416.628 324.469C416.842 324.747 416.889 325.119 416.75 325.441C416.252 326.579 415.857 327.758 415.569 328.966C415.306 330.181 415.155 331.416 415.118 332.658C415.105 333.009 414.902 333.325 414.588 333.481C414.275 333.638 413.9 333.611 413.612 333.411Z" fill="white"/>
<path d="M404.921 331.446C404.684 331.287 404.528 331.032 404.493 330.749C404.376 329.336 404.499 327.913 404.858 326.542C405.122 325.145 405.626 323.805 406.347 322.58C406.497 322.337 406.746 322.172 407.029 322.129C407.375 322.073 407.724 322.211 407.939 322.489C408.153 322.766 408.199 323.139 408.059 323.46C407.564 324.599 407.169 325.778 406.878 326.985C406.618 328.2 406.467 329.436 406.427 330.677C406.42 331.031 406.219 331.352 405.904 331.512C405.589 331.673 405.212 331.648 404.921 331.446Z" fill="white"/>
<path d="M365.458 300.405C360.768 297.442 356.133 294.511 350.35 292.554C348.381 291.84 346.341 291.343 344.265 291.072C331.296 289.63 325.33 302.75 334.227 309.841C342.459 316.417 357.139 325.686 384.394 328.428C387.032 328.689 389.662 329.006 392.316 329.363C393.526 329.534 394.676 328.781 395.002 327.604C395.596 325.433 396.587 322.058 397.276 319.744C397.464 319.114 397.391 318.434 397.074 317.858C396.757 317.282 396.222 316.857 395.588 316.678C380.345 312.471 379.371 309.183 365.458 300.405Z" fill="#4D5D66"/>
<path d="M364.547 326.257C364.547 326.257 353.867 327.501 350.358 330.052C349.185 330.907 347.315 330.844 345.2 331.842C341.912 333.427 337.483 334.021 334.853 332.722C333.506 332.056 333.49 332.722 333.094 331.288C331.96 327.001 334.199 322.542 338.315 320.893C341.215 319.723 344.308 319.108 347.434 319.079C357.108 318.889 362.107 316.013 362.107 316.013L364.547 326.257Z" fill="#CCD0D3"/>
<path d="M346.436 332.904C349.954 331.779 352.774 332.682 354.359 331.454C356.807 329.552 353.154 328.578 353.154 328.578C357.227 327.786 356.078 320.925 354.097 320.544C353.593 320.451 353.095 320.324 352.608 320.164C353.527 319.578 354.367 318.698 353.646 317.851C350.849 314.555 345.937 320.045 341.262 317.399C339.983 316.685 338.569 316.242 337.111 316.1C334.783 315.876 332.484 316.743 330.885 318.449C329.286 320.156 328.568 322.507 328.943 324.815L330.004 331.232C330.364 333.53 331.77 335.531 333.809 336.649C335.849 337.767 338.292 337.876 340.423 336.944C343.37 335.613 344.328 333.585 346.436 332.904Z" fill="#AD662C"/>
<path d="M345.715 330.194C345.96 330.047 346.13 329.802 346.182 329.521C346.49 326.695 346.015 323.84 344.812 321.265C344.674 321.014 344.434 320.835 344.154 320.774C343.811 320.701 343.455 320.82 343.224 321.085C342.994 321.35 342.925 321.719 343.045 322.05C343.479 323.214 343.805 324.415 344.019 325.639C344.211 326.865 344.29 328.106 344.257 329.346C344.246 329.698 344.429 330.028 344.733 330.205C345.038 330.382 345.414 330.378 345.715 330.194Z" fill="white"/>
<path d="M341.159 330.947C341.408 330.804 341.58 330.556 341.627 330.273C341.942 327.448 341.47 324.592 340.264 322.018C340.123 321.702 339.823 321.486 339.479 321.451C339.135 321.416 338.799 321.567 338.596 321.847C338.393 322.127 338.356 322.494 338.497 322.81C338.925 323.976 339.248 325.177 339.464 326.399C339.655 327.625 339.734 328.866 339.702 330.107C339.694 330.457 339.878 330.784 340.181 330.959C340.485 331.134 340.86 331.129 341.159 330.947Z" fill="white"/>
<path d="M349.946 329.513C350.192 329.369 350.361 329.122 350.405 328.84C350.72 326.015 350.249 323.158 349.042 320.584C348.904 320.335 348.664 320.159 348.385 320.101C348.042 320.024 347.685 320.141 347.453 320.405C347.222 320.669 347.154 321.039 347.276 321.369C347.706 322.534 348.032 323.735 348.25 324.958C348.439 326.187 348.516 327.43 348.48 328.673C348.476 329.024 348.662 329.35 348.966 329.524C349.27 329.698 349.645 329.694 349.946 329.513Z" fill="white"/>
<path d="M391.16 300.817C396.016 298.139 400.817 295.477 406.696 293.861C408.707 293.266 410.776 292.888 412.868 292.736C425.885 292.062 431.09 305.507 421.781 312.067C413.177 318.144 398.013 326.526 370.608 327.683C367.967 327.794 365.326 327.95 362.685 328.15C361.466 328.252 360.362 327.43 360.11 326.233C359.651 324.038 358.859 320.576 358.304 318.255C358.151 317.615 358.262 316.941 358.612 316.385C358.963 315.829 359.523 315.437 360.166 315.3C375.591 311.988 376.756 308.763 391.16 300.817Z" fill="#66737B"/>
<path d="M377.778 217.914C375.758 218.207 371.297 221.249 367.17 223.999C362.162 227.334 353.099 252.069 349.233 257.163L349.122 257.29C349.561 258.04 349.716 258.923 349.557 259.778C348.987 263.462 350.437 269 353.764 270.481C354.184 270.132 355.808 267.55 355.967 267.367C358.637 264.42 379.513 231.454 380.654 226.779C381.378 223.893 380.799 220.835 379.069 218.413C378.754 218.035 378.266 217.846 377.778 217.914Z" fill="#C93C01"/>
<path d="M338.101 227.92C338.822 231.2 340.858 236.302 342.316 239.804C344.208 244.271 345.83 248.848 347.173 253.51C344.418 256.644 341.096 259.227 337.38 261.124C336.509 256.806 335.693 252.488 334.813 248.17C334.076 244.542 333.102 240.961 332.08 237.395C331.573 235.637 331.058 233.878 330.551 232.111C330.202 230.891 329.347 229.275 331.05 228.863C331.842 228.665 332.682 228.617 333.506 228.475C335.027 228.229 336.564 228.055 338.101 227.92Z" fill="#99A2A7"/>
<path fill-rule="evenodd" clip-rule="evenodd" d="M329.085 229.473L328.943 229.275C328.328 228.531 327.858 227.68 327.556 226.763C326.579 224.674 325.804 222.496 325.243 220.259C324.759 218.326 324.355 216.733 325.805 215.157C327.255 213.58 328.895 211.9 331.018 211.528C333.585 211.076 333.237 216.02 333.863 217.549C334.243 218.5 335.194 220.671 335.915 222.303C336.134 222.238 336.317 222.086 336.422 221.883C338.236 218.872 342.554 218.484 341.088 220.671C340.43 221.653 339.337 222.858 339.361 224.189C339.408 226.454 338.014 229.616 336.303 230.764C332.92 231.937 330.583 231.058 329.109 229.457L329.085 229.473Z" fill="#99A2A7"/>
<path d="M348.068 273.127C348.765 273.199 349.469 273.112 350.128 272.874C352.037 272.182 353.664 270.879 354.755 269.166C355.351 268.227 355.865 267.238 356.292 266.211C356.434 265.886 356.965 265.046 356.902 264.705C356.838 264.365 356.292 264.262 355.903 264.095C352.98 262.812 350.722 257.084 348.829 250.793C348.707 250.337 348.369 249.97 347.924 249.812C347.479 249.653 346.985 249.724 346.602 250.001C343.671 252.172 339.195 253.843 336.105 255.23C335.483 255.517 335.151 256.204 335.312 256.87C336.217 260.315 337.867 263.52 340.145 266.258C341.268 267.653 342.503 268.954 343.837 270.148C344.503 270.734 345.184 271.321 345.905 271.844C346.434 272.362 347.062 272.768 347.751 273.04C347.855 273.076 347.961 273.105 348.068 273.127Z" fill="#C93C01"/>
<path d="M379.371 193.876C379.371 193.876 380.012 196.776 378.356 197.648C376.701 198.519 381.359 204.224 381.819 208.526C382.278 212.828 380.694 214.864 380.694 214.864C380.694 214.864 381.193 212.36 380.432 210.997C380.432 210.997 381.034 214 379.093 215.902C377.152 217.803 377.976 219.015 377.976 219.015C377.976 219.015 372.747 218.389 371.955 214.681C371.983 215.486 372.108 216.284 372.327 217.058C372.327 217.058 367.479 214.578 366.623 210.894C365.767 207.21 368.818 203.455 370.442 203.114C372.066 202.774 375.195 198.939 374.847 197.743C374.498 196.546 379.371 193.876 379.371 193.876Z" fill="#8A5123"/>
<path d="M369.681 227.08C370.64 225.773 371.686 224.363 372.549 223.119V223.063C373.627 221.479 374.403 220.203 374.34 219.672C375.411 219.32 376.432 218.827 377.374 218.207C378.238 216.274 380.266 209.928 378.436 207.044C377.065 204.889 393.362 204.184 393.362 204.184L392.57 208.636L391.326 218.334C391.326 218.468 391.326 218.587 391.278 218.698C391.231 218.809 391.231 219.102 391.215 219.197C391.199 219.292 385.083 232.143 369.681 227.08Z" fill="#CCD0D3"/>
<path d="M392.657 221.622C393.837 224.466 388.07 235.336 384.94 235.399C381.811 235.463 367.795 232.531 366.908 231.596C366.639 231.311 368.049 229.346 369.729 227.08C385.107 232.143 391.318 219.197 391.318 219.197C391.16 220.227 391.572 220.631 392.657 221.622Z" fill="#99A2A7"/>
<path fill-rule="evenodd" clip-rule="evenodd" d="M370.727 190.763C368.637 191.399 367.457 193.607 368.089 195.697C368.72 197.788 370.925 198.974 373.017 198.347C375.11 197.72 376.3 195.519 375.679 193.425C375.378 192.413 374.686 191.563 373.757 191.063C372.827 190.563 371.737 190.455 370.727 190.763Z" fill="#99A2A7"/>
<path d="M368.16 181.525L393.101 213.429C393.101 213.429 395.208 201.957 397.933 202.124C402.75 202.425 407.868 195.176 405.999 182.729C405.649 180.252 404.843 177.861 403.622 175.678C398.116 166.036 385.352 163.485 376.154 169.696C372.054 172.451 369.187 176.693 368.16 181.525Z" fill="#8A5123"/>
<path fill-rule="evenodd" clip-rule="evenodd" d="M384.893 171.986C392.092 172.428 397.582 178.602 397.181 185.803L396.491 197.687C396.049 204.891 389.872 210.385 382.666 209.983C375.466 209.537 369.977 203.361 370.378 196.158L371.068 184.274C371.514 177.074 377.69 171.584 384.893 171.986Z" fill="#CCD0D3"/>
<path fill-rule="evenodd" clip-rule="evenodd" d="M390.153 173.436C394.701 175.826 397.435 180.65 397.149 185.779L396.46 197.663C396.018 204.867 389.841 210.361 382.635 209.959C381.032 209.867 379.46 209.478 378 208.811C390.771 209.651 399.082 197.98 392.261 195.501C384.275 192.593 373.017 173.317 370.98 192.427C370.933 192.854 369.325 187.301 370.98 185.573L371.052 184.274C371.119 183.128 371.338 181.996 371.701 180.907C376.344 174.062 384.433 174.173 387.84 173.689L390.027 173.38H390.106C390.05 173.436 390.042 173.436 390.153 173.436Z" fill="#99A2A7"/>
<path d="M368.984 176.819C371.812 172.525 374.363 173.119 375.869 174.157C386.691 166.583 395.113 175.131 395.113 175.131C397.545 184.385 405.056 190.636 405.056 190.636C405.056 190.636 402.14 193.472 393.172 191.103C389.999 190.158 387.069 188.536 384.584 186.35C387.332 189.905 390.552 193.069 394.154 195.754C383.063 192.023 377.224 177.785 376.629 176.28C375.473 177.572 373.207 180.352 372.708 182.896C372.018 186.35 372.288 193.274 370.259 193.258C370.22 193.243 364.745 183.26 368.984 176.819Z" fill="#8A5123"/>
<path fill-rule="evenodd" clip-rule="evenodd" d="M398.813 190.763C400.355 190.852 401.692 191.862 402.199 193.321C402.707 194.78 402.285 196.401 401.131 197.428C399.977 198.455 398.318 198.685 396.928 198.012C395.538 197.339 394.69 195.894 394.78 194.352C394.908 192.25 396.71 190.646 398.813 190.763Z" fill="#99A2A7"/>
<path d="M396.064 188.719L394.693 189.202C395.787 191.391 397.07 193.48 398.528 195.445C398.528 195.445 397.339 192.736 396.064 188.719Z" fill="#8A5123"/>
<path d="M386.065 184.321L384.148 185.819C387.042 188.707 390.18 191.339 393.528 193.686C393.528 193.686 390.217 190.002 386.065 184.321Z" fill="#8A5123"/>
<path d="M389.179 185.32L387.372 186.952C390.458 189.633 393.772 192.04 397.276 194.146C397.276 194.146 393.711 190.676 389.179 185.32Z" fill="#8A5123"/>
<path d="M395.034 274.68C395.414 268.429 401.578 233.332 403.543 222.208C403.894 220.253 402.716 218.347 400.809 217.787C398.291 216.966 395.698 216.39 393.069 216.068C392.782 216.063 392.529 216.257 392.459 216.535C388.925 230.4 374.522 226.835 374.522 226.835C373.968 226.652 373.521 226.239 373.294 225.702C373.143 225.181 373.166 224.625 373.357 224.117C373.591 223.464 373.908 222.844 374.3 222.271C374.73 221.639 375.196 221.03 375.694 220.449C376.146 219.918 376.621 219.411 377.105 218.865C377.279 218.69 377.453 218.524 377.643 218.358C377.677 218.327 377.706 218.292 377.731 218.255C377.742 218.199 377.73 218.141 377.697 218.094C377.664 218.047 377.613 218.017 377.556 218.009C377.419 218.033 377.29 218.088 377.176 218.167L376.621 218.405C376.433 218.469 376.248 218.544 376.067 218.627C367.954 222.818 362.384 240.129 361.925 247.656C361.497 254.715 366.995 278.404 355.539 291.381C355.056 291.936 355.943 292.768 356.68 292.783C362.099 292.879 384.33 295.556 391.397 295.953C396.698 296.277 400.992 295.01 402.243 294.146C402.518 293.953 402.699 293.652 402.739 293.318C402.78 292.985 402.678 292.649 402.457 292.395C399.257 288.806 394.63 281.185 395.034 274.68Z" fill="#FC4C02"/>
<path opacity="0.15" d="M409.501 239.4C408.225 235.439 405.745 221.519 400.334 221.804C398.951 221.954 397.618 221.236 396.983 219.998C395.351 222.485 393.196 226.28 392.451 230.012C391.817 233.181 394.606 240.074 398.789 249.438C398.93 248.367 399.15 247.308 399.447 246.269C399.823 244.905 400.899 243.845 402.269 243.489C403.638 243.133 405.094 243.535 406.087 244.543C407.081 245.551 407.461 247.012 407.084 248.377V248.464C407.088 248.509 407.088 248.554 407.084 248.599C406.292 255.729 408.994 262.455 411.291 269.11C411.832 270.393 411.516 271.876 410.499 272.826C410.435 272.969 410.364 273.119 410.285 273.262C409.152 275.33 407.908 277.31 406.648 279.315C406.537 279.489 405.515 281.177 405.064 281.961C405.08 282.146 405.08 282.331 405.064 282.516C405.276 284.398 404.125 286.167 402.318 286.737C400.511 287.306 398.554 286.517 397.648 284.853C397.511 284.691 397.386 284.519 397.276 284.338C397.138 284.08 397.014 283.816 396.903 283.546L396.761 283.205C395.034 285.32 393.315 287.554 391.564 290.003C389.405 293.124 387.053 296.106 384.52 298.931C383.014 299.073 381.559 299.546 380.258 300.318C379.487 300.629 378.641 300.709 377.826 300.548H377.089C376.292 300.427 375.497 300.776 375.045 301.443C374.698 302.089 374.731 302.873 375.132 303.487C376.055 304.84 377.482 305.767 379.093 306.062C378.349 307.139 377.612 308.193 377.208 308.748C376.838 309.151 376.432 309.519 375.995 309.849C374.649 310.966 373.12 312.226 373.001 313.81C372.948 314.523 373.198 315.225 373.69 315.743C375.449 317.732 378.261 318.263 380.115 318.619C380.454 318.687 380.799 318.721 381.145 318.722C383.221 318.722 384.512 317.399 385.772 316.108L386.089 315.759C385.363 314.582 385.312 313.11 385.954 311.885C388.125 307.496 388.862 303.321 392.292 299.557C395.333 296.368 398.987 293.827 403.036 292.086C403.527 291.864 404.058 291.682 404.62 291.5C404.668 291.397 404.699 291.294 404.755 291.191C405.967 288.973 407.354 286.865 408.716 284.758C409.794 283.013 412.006 282.349 413.866 283.213C416.021 279.719 417.899 276.082 419.753 272.382C414.349 262.012 413.09 250.452 409.501 239.4Z" fill="black"/>
<path d="M385.17 301.276C387.547 298.9 390.851 294.526 393.093 291.436C395.901 287.484 398.941 283.701 402.196 280.107C406.31 280.795 410.255 282.264 413.818 284.433C410.649 287.443 407.361 290.406 404.153 293.425C401.451 295.96 398.916 298.67 396.428 301.411C395.192 302.766 393.972 304.136 392.736 305.491C391.881 306.426 390.954 308.011 389.71 306.783C389.115 306.196 388.64 305.515 388.125 304.897C387.048 303.732 386.089 302.52 385.17 301.276Z" fill="#CCD0D3"/>
<path fill-rule="evenodd" clip-rule="evenodd" d="M391.231 308.122L391.136 308.351C390.826 309.262 390.351 310.109 389.733 310.847C388.469 312.776 387.023 314.58 385.416 316.234C384.021 317.66 382.88 318.841 380.781 318.445C378.681 318.049 376.384 317.526 374.95 315.917C373.215 313.968 377.604 311.663 378.578 310.372C379.18 309.54 380.527 307.591 381.541 306.125C381.373 305.972 381.15 305.895 380.923 305.911C377.398 305.911 374.799 302.481 377.437 302.576C378.618 302.623 380.218 302.924 381.327 302.203C383.229 300.967 386.659 300.492 388.529 301.34C391.31 303.606 391.793 306.093 391.207 308.153L391.231 308.122Z" fill="#CCD0D3"/>
<path d="M400.453 281.977C400.021 281.797 399.703 281.418 399.601 280.961C399.498 280.505 399.624 280.027 399.938 279.679C404.311 274.775 408.011 269.855 407.567 266.686C406.688 260.348 393.005 236.287 394.178 230.384C395.153 225.52 398.718 220.402 399.938 218.754C400.235 218.344 400.727 218.124 401.229 218.175C404.159 218.671 406.723 220.429 408.241 222.984C410.744 227.088 422.32 267.7 422.502 271.677C422.589 273.46 418.334 281.89 412.202 288.022C411.715 288.511 410.948 288.581 410.38 288.188C407.599 286.287 403.836 283.347 400.453 281.977Z" fill="#C93C01"/>
<path d="M401.76 197.576C401.76 197.576 402.465 200.745 400.643 201.744C398.821 202.742 403.947 208.985 404.454 213.738C404.961 218.492 403.21 220.734 403.21 220.734C403.21 220.734 403.757 217.977 402.925 216.48C402.925 216.48 403.59 219.784 401.451 221.883C399.312 223.983 400.223 225.321 400.223 225.321C400.223 225.321 394.447 224.624 393.584 220.568C393.613 221.46 393.749 222.346 393.988 223.206C393.988 223.206 388.64 220.473 387.697 216.408C386.755 212.344 390.122 208.208 391.912 207.836C393.703 207.464 397.109 203.225 396.769 201.902C396.428 200.579 401.76 197.576 401.76 197.576Z" fill="#8A5123"/>
<path d="M400.176 202.544C400.679 202.49 401.174 202.707 401.475 203.114C401.776 203.524 401.776 204.083 401.475 204.493C401.132 204.882 400.546 204.937 400.136 204.62C400.202 205.265 399.804 205.867 399.184 206.059C398.565 206.251 397.896 205.981 397.585 205.412C397.262 205.922 396.625 206.134 396.061 205.918C395.497 205.703 395.164 205.12 395.263 204.525C395.374 204.079 395.66 203.696 396.056 203.463C396.43 203.227 396.836 203.043 397.26 202.916L399.169 202.243C399.442 202.123 399.736 202.061 400.033 202.061C400.333 202.079 400.597 202.266 400.714 202.544" fill="#F84C02"/>
<path d="M179.314 163.889L180.788 171.114C180.991 172.104 181.951 172.746 182.943 172.556C183.414 172.464 183.829 172.189 184.097 171.791C184.364 171.392 184.462 170.904 184.369 170.433L182.895 163.208C182.692 162.218 181.732 161.576 180.741 161.766C179.759 161.957 179.118 162.907 179.307 163.889H179.314Z" fill="#FEDBCC"/>
<path d="M157.828 323.001L153.019 332.959C152.602 333.823 152.546 334.817 152.863 335.722C153.179 336.627 153.843 337.369 154.707 337.784C156.538 338.646 158.722 337.872 159.603 336.049L164.404 326.09C165.267 324.29 164.513 322.13 162.716 321.258C160.885 320.393 158.699 321.172 157.828 323.001Z" fill="#FEDBCC"/>
<path d="M226.613 361.386L235.74 359.976C237.738 359.67 239.115 357.809 238.822 355.808C238.532 353.831 236.695 352.462 234.718 352.75L225.591 354.16C223.595 354.47 222.22 356.329 222.509 358.328C222.803 360.303 224.637 361.669 226.613 361.386Z" fill="#CCE2E5"/>
<path d="M275.631 364.531C275.232 363.617 274.171 363.196 273.254 363.589L263.105 368.025C262.198 368.43 261.777 369.483 262.154 370.402C262.553 371.316 263.614 371.737 264.531 371.345L274.68 366.908C275.587 366.503 276.008 365.45 275.631 364.531Z" fill="#CCE2E5"/>
<path d="M234.544 124.798L241.84 123.673C243.342 123.445 244.376 122.046 244.154 120.544C244.052 119.832 243.67 119.189 243.093 118.76C242.516 118.33 241.791 118.148 241.08 118.254L233.783 119.379C233.055 119.49 232.401 119.888 231.967 120.482C231.532 121.077 231.354 121.821 231.47 122.548C231.686 124.031 233.061 125.058 234.544 124.846V124.798Z" fill="#FEDBCC"/>
<path d="M167.494 384.568L167.335 377.287C167.313 376.564 167.003 375.88 166.476 375.385C165.948 374.89 165.246 374.625 164.523 374.649C162.998 374.701 161.798 375.968 161.829 377.493L161.987 384.774C162.01 385.497 162.319 386.181 162.847 386.676C163.374 387.171 164.077 387.436 164.8 387.412C166.327 387.365 167.529 386.095 167.494 384.568Z" fill="#FFE761"/>
<path d="M111.94 292.633C111.419 294.037 112.126 295.599 113.524 296.135L120.37 298.646C121.8 299.171 123.386 298.447 123.927 297.022C124.452 295.618 123.744 294.053 122.342 293.52L115.505 291.009C114.072 290.484 112.484 291.208 111.94 292.633Z" fill="#FFE761"/>
<path d="M116.86 164.118C116.414 164.217 116.026 164.489 115.781 164.873C115.536 165.258 115.453 165.725 115.553 166.17L117.137 173.008C117.35 173.942 118.277 174.53 119.213 174.323C119.659 174.228 120.049 173.959 120.296 173.575C120.543 173.191 120.627 172.725 120.528 172.279L118.943 165.45C118.734 164.507 117.802 163.912 116.86 164.118Z" fill="#FEDBCC"/>
<path d="M279.64 108.652L283.672 118.357C284.019 119.201 284.688 119.872 285.531 120.222C286.375 120.571 287.322 120.57 288.164 120.219C289.932 119.466 290.762 117.43 290.026 115.656L286.002 105.943C285.269 104.19 283.256 103.361 281.501 104.089C279.737 104.845 278.908 106.878 279.64 108.652Z" fill="#FEDBCC"/>
<path d="M131.105 138.307C131.666 137.91 132.046 137.306 132.162 136.628C132.278 135.951 132.12 135.255 131.723 134.694L127.761 129.037C126.922 127.858 125.291 127.573 124.101 128.396C122.937 129.222 122.661 130.834 123.483 132L127.484 137.657C128.324 138.841 129.961 139.127 131.152 138.299L131.105 138.307Z" fill="#FEDBCC"/>
<path d="M188.029 109.207C188.431 108.386 188.489 107.44 188.192 106.576C187.895 105.713 187.266 105.003 186.445 104.604L178.522 100.793C176.798 99.9525 174.718 100.66 173.864 102.377C173.462 103.199 173.403 104.146 173.7 105.011C173.998 105.876 174.626 106.587 175.448 106.988L183.371 110.807C185.1 111.64 187.178 110.927 188.029 109.207Z" fill="#CCE2E5"/>
<path d="M308.122 76.9373C308.21 76.4886 308.116 76.0232 307.86 75.644C307.604 75.2649 307.208 75.0033 306.759 74.917L296.46 72.9284C295.517 72.7493 294.607 73.3654 294.423 74.307C294.335 74.7557 294.429 75.2211 294.685 75.6003C294.941 75.9794 295.337 76.241 295.786 76.3273L306.086 78.3159C306.538 78.4041 307.008 78.3082 307.39 78.0495C307.772 77.7908 308.035 77.3906 308.122 76.9373Z" fill="#CCE2E5"/>
<path d="M250.524 153.486C250.519 152.063 249.364 150.912 247.941 150.912C246.502 150.912 245.331 152.071 245.318 153.51L245.255 160.53C245.255 161.953 246.407 163.108 247.83 163.113C249.273 163.113 250.447 161.949 250.46 160.506L250.524 153.486Z" fill="#CCE2E5"/>
<path d="M301.887 336.548C303.163 337.18 303.687 338.725 303.059 340.003C302.42 341.293 300.863 341.829 299.565 341.207L293.227 338.157C292.613 337.855 292.144 337.321 291.924 336.673C291.704 336.025 291.751 335.316 292.054 334.703C292.693 333.413 294.25 332.876 295.548 333.498L301.887 336.556V336.548Z" fill="#FEDBCC"/>
<path d="M335.78 157.408C335.152 158.686 335.676 160.231 336.952 160.863L343.291 163.913C344.588 164.54 346.149 164.002 346.785 162.709C347.413 161.431 346.888 159.886 345.612 159.254L339.274 156.204C337.976 155.577 336.416 156.115 335.78 157.408Z" fill="#FEDBCC"/>
<path d="M339.234 115.933L343.037 110.141C343.804 108.933 343.45 107.332 342.245 106.56C341.021 105.779 339.396 106.133 338.608 107.352L334.813 113.136C334.441 113.714 334.315 114.417 334.464 115.088C334.613 115.759 335.024 116.343 335.606 116.709C336.824 117.488 338.442 117.142 339.234 115.933Z" fill="#FFE761"/>
<path d="M302.394 151.902C301.23 152.728 300.954 154.34 301.776 155.507L305.737 161.164C306.577 162.347 308.213 162.634 309.405 161.805C309.968 161.41 310.35 160.806 310.466 160.128C310.582 159.449 310.423 158.753 310.023 158.193L306.022 152.536C305.183 151.357 303.552 151.071 302.362 151.894L302.394 151.902Z" fill="#FFE761"/>
</svg>
