<svg width="336" height="336" viewBox="0 0 336 336" fill="none" xmlns="http://www.w3.org/2000/svg">
<path fill-rule="evenodd" clip-rule="evenodd" d="M305.171 132.991C305.171 144.138 296.069 153.174 284.841 153.174C296.069 153.174 305.171 162.21 305.171 173.357C305.171 162.21 314.273 153.174 325.501 153.174C314.273 153.174 305.171 144.138 305.171 132.991Z" stroke="#FFB023" stroke-width="4" stroke-linecap="round" stroke-linejoin="round"/>
<path fill-rule="evenodd" clip-rule="evenodd" d="M272.661 262.5C272.661 268.071 268.112 272.587 262.5 272.587C268.112 272.587 272.661 277.103 272.661 282.674C272.661 277.103 277.21 272.587 282.821 272.587C277.21 272.587 272.661 268.071 272.661 262.5Z" stroke="#FFB023" stroke-width="4" stroke-linecap="round" stroke-linejoin="round"/>
<path fill-rule="evenodd" clip-rule="evenodd" d="M225.411 26.25C225.411 31.821 220.862 36.3372 215.25 36.3372C220.862 36.3372 225.411 40.8534 225.411 46.4244C225.411 40.8534 229.96 36.3372 235.571 36.3372C229.96 36.3372 225.411 31.821 225.411 26.25Z" stroke="#FFB023" stroke-width="4" stroke-linecap="round" stroke-linejoin="round"/>
<path fill-rule="evenodd" clip-rule="evenodd" d="M57.0334 267.75C57.0334 270.649 54.6658 273 51.7451 273C54.6658 273 57.0334 275.351 57.0334 278.25C57.0334 275.351 59.401 273 62.3217 273C59.401 273 57.0334 270.649 57.0334 267.75Z" stroke="#FFB023" stroke-width="4" stroke-linecap="round" stroke-linejoin="round"/>
<path fill-rule="evenodd" clip-rule="evenodd" d="M25.7411 47.25C25.7411 55.6065 18.9174 62.3808 10.5 62.3808C18.9174 62.3808 25.7411 69.1551 25.7411 77.5116C25.7411 69.1551 32.5648 62.3808 40.9822 62.3808C32.5648 62.3808 25.7411 55.6065 25.7411 47.25Z" stroke="#FFB023" stroke-width="4" stroke-linecap="round" stroke-linejoin="round"/>
<mask id="mask0_1262_51120" style="mask-type:alpha" maskUnits="userSpaceOnUse" x="66" y="71" width="196" height="195">
<path fill-rule="evenodd" clip-rule="evenodd" d="M231.502 101.307C268.848 138.383 268.848 198.494 231.502 235.57C194.156 272.646 133.606 272.646 96.2596 235.57C58.9135 198.494 58.9135 138.383 96.2596 101.307C133.606 64.231 194.156 64.231 231.502 101.307Z" fill="white"/>
<path d="M231.502 101.307C268.848 138.383 268.848 198.494 231.502 235.57C194.156 272.646 133.606 272.646 96.2596 235.57C58.9135 198.494 58.9135 138.383 96.2596 101.307C133.606 64.231 194.156 64.231 231.502 101.307" stroke="#08909E" stroke-width="3.75" stroke-linecap="round" stroke-linejoin="round"/>
</mask>
<g mask="url(#mask0_1262_51120)">
<path fill-rule="evenodd" clip-rule="evenodd" d="M246.744 116.438C284.09 153.514 284.09 213.625 246.744 250.701C209.398 287.777 148.848 287.777 111.502 250.701C74.1557 213.625 74.1557 153.514 111.502 116.438C148.848 79.3619 209.398 79.3619 246.744 116.438Z" fill="#DEF5EB"/>
</g>
<path d="M127.443 158.253L166.275 197.096L245.184 118.187C228.939 91.5587 199.699 73.7207 166.224 73.7207C115.116 73.7207 73.6924 115.144 73.6924 166.252C73.6924 217.36 115.116 258.783 166.224 258.783C213.846 258.783 253.028 222.799 258.148 176.533" stroke="#177850" stroke-width="4" stroke-linecap="round" stroke-linejoin="round"/>
</svg>
