<svg width="30" height="30" viewBox="0 0 30 30" fill="none" xmlns="http://www.w3.org/2000/svg">
<path d="M14.9988 20C14.8263 20 14.6863 20.14 14.6875 20.3125C14.6875 20.485 14.8275 20.625 15 20.625C15.1725 20.625 15.3125 20.485 15.3125 20.3125C15.3125 20.14 15.1725 20 14.9988 20" stroke="#D32121" stroke-width="1.5" stroke-linecap="round" stroke-linejoin="round"/>
<path fill-rule="evenodd" clip-rule="evenodd" d="M9.2675 25.5175L4.4825 20.7325C4.01375 20.2638 3.75 19.6275 3.75 18.965V11.035C3.75 10.3725 4.01375 9.73625 4.4825 9.2675L9.2675 4.4825C9.73625 4.01375 10.3725 3.75 11.035 3.75H18.9638C19.6263 3.75 20.2625 4.01375 20.7313 4.4825L25.5163 9.2675C25.9863 9.73625 26.25 10.3725 26.25 11.035V18.9638C26.25 19.6263 25.9862 20.2625 25.5175 20.7313L20 26.25H11.035C10.3725 26.25 9.73625 25.9862 9.2675 25.5175V25.5175Z" stroke="#D32121" stroke-width="1.5" stroke-linecap="round" stroke-linejoin="round"/>
<path d="M15 15.625V9.375" stroke="#D32121" stroke-width="1.5" stroke-linecap="round" stroke-linejoin="round"/>
</svg>
