<svg width="40" height="40" viewBox="0 0 40 40" fill="none" xmlns="http://www.w3.org/2000/svg">
<path fill-rule="evenodd" clip-rule="evenodd" d="M37.4989 8.39002C37.4836 5.13457 34.84 2.5 31.5815 2.5C30.7718 2.5 29.9781 2.65383 29.2977 2.95721L7.73457 12.1142C4.66148 13.414 2.5 16.4594 2.5 20.0003V31.5821C2.5 34.85 5.14918 37.5 8.41825 37.5C9.24724 37.5 10.0358 37.3284 10.7527 37.0204L32.2241 27.9039C35.3186 26.6128 37.4995 23.5573 37.4995 20.0003L37.4989 8.39002Z" fill="#FC4C02"/>
<path fill-rule="evenodd" clip-rule="evenodd" d="M17.6612 24.6497C17.4101 24.6497 17.2062 24.4239 17.2062 24.1455V13.4944C17.2062 13.2158 17.4101 12.9897 17.6612 12.9897C17.9127 12.9897 18.1166 13.2158 18.1166 13.4944V24.1455C18.1166 24.4239 17.9127 24.6497 17.6612 24.6497Z" fill="white"/>
<path fill-rule="evenodd" clip-rule="evenodd" d="M21.618 24.1743V15.8464C21.618 15.5645 21.414 15.3359 21.1618 15.3359C20.911 15.3359 20.7076 15.5645 20.7076 15.8464V24.1743C20.7076 24.4562 20.911 24.6849 21.1618 24.6849C21.414 24.6849 21.618 24.4562 21.618 24.1743Z" fill="white"/>
<path fill-rule="evenodd" clip-rule="evenodd" d="M21.618 13.4581V13.4319C21.618 13.1878 21.414 12.9897 21.1618 12.9897C20.911 12.9897 20.7076 13.1878 20.7076 13.4319V13.4581C20.7076 13.7023 20.911 13.9001 21.1618 13.9001C21.414 13.9001 21.618 13.7023 21.618 13.4581Z" fill="white"/>
<path fill-rule="evenodd" clip-rule="evenodd" d="M14.4992 23.5271C14.7004 23.3278 14.7004 23.0043 14.4992 22.8053C14.2981 22.6056 13.9722 22.6056 13.7722 22.8053C12.2874 24.2765 9.87315 24.2765 8.38889 22.8053C6.90458 21.3319 6.90458 18.936 8.38889 17.4636C9.10755 16.7505 10.0638 16.3576 11.0798 16.3576C12.0973 16.3576 13.0524 16.7505 13.771 17.4636C13.9722 17.6635 14.2981 17.6635 14.4992 17.4636C14.7004 17.2638 14.7004 16.9409 14.4992 16.7412C13.5862 15.8349 12.372 15.3359 11.0798 15.3359C9.78832 15.3359 8.57432 15.8349 7.66068 16.7412C5.77522 18.6118 5.77522 21.6555 7.66068 23.5271C8.60356 24.4626 9.84118 24.93 11.0804 24.93C12.3183 24.93 13.5564 24.4626 14.4992 23.5271Z" fill="white"/>
<path fill-rule="evenodd" clip-rule="evenodd" d="M25.2305 26.7313V20.1231C25.2305 18.0455 26.924 16.3549 29.0064 16.3549C31.0883 16.3549 32.7823 18.0455 32.7823 20.1231C32.7823 22.201 31.0883 23.8909 29.0064 23.8909C27.8059 23.8909 26.9934 23.4332 26.9872 23.4306C26.7441 23.2882 26.4308 23.3689 26.2882 23.6118C26.1463 23.8551 26.2278 24.1669 26.4706 24.3099C26.5125 24.3344 27.5146 24.9103 29.0064 24.9103C31.6517 24.9103 33.8032 22.7627 33.8032 20.1231C33.8032 17.4833 31.6517 15.3359 29.0064 15.3359C26.3608 15.3359 24.2091 17.4833 24.2091 20.1231V26.7313C24.2091 27.0123 24.4382 27.241 24.7198 27.241C25.0016 27.241 25.2305 27.0123 25.2305 26.7313Z" fill="white"/>
<path fill-rule="evenodd" clip-rule="evenodd" d="M37.4097 30.1117C37.4097 30.9242 36.7516 31.5824 35.9391 31.5824C35.1266 31.5824 34.4685 30.9242 34.4685 30.1117C34.4685 29.2992 35.1266 28.6411 35.9391 28.6411C36.7516 28.6411 37.4097 29.2992 37.4097 30.1117ZM37.1782 30.1117C37.1782 29.4211 36.6216 28.8564 35.9391 28.8564C35.2566 28.8564 34.7041 29.4211 34.7041 30.1117C34.7041 30.8024 35.2566 31.367 35.9391 31.367C36.6216 31.367 37.1782 30.8024 37.1782 30.1117ZM36.5566 30.9161H36.2966L35.9269 30.258H35.6832V30.9161H35.4598V29.3033H36.0082C36.2885 29.3033 36.516 29.5146 36.516 29.7867C36.516 30.0224 36.3698 30.1686 36.1707 30.2295L36.5566 30.9161ZM36.2885 29.7867C36.2885 29.6242 36.1626 29.5024 35.9838 29.5024H35.6832V30.067H35.9838C36.1626 30.067 36.2885 29.9492 36.2885 29.7867Z" fill="#FC4C02"/>
</svg>
