<svg width="24" height="24" viewBox="0 0 24 24" fill="none" xmlns="http://www.w3.org/2000/svg">
<path fill-rule="evenodd" clip-rule="evenodd" d="M6.00067 21.0024H4.00045C3.44839 21.0024 3.00034 20.5543 3.00034 20.0023V14.0016C3.00034 13.4495 3.44839 13.0015 4.00045 13.0015H6.00067C6.55274 13.0015 7.00079 13.4495 7.00079 14.0016V20.0023C7.00079 20.5543 6.55274 21.0024 6.00067 21.0024Z" stroke="#FC4C02" stroke-width="1.5" stroke-linecap="round" stroke-linejoin="round"/>
<path d="M13.0015 17.0018H15.3348C15.7678 17.0018 16.1889 16.8618 16.5349 16.6018L18.9512 14.7896C19.5542 14.3375 20.3983 14.3975 20.9314 14.9306V14.9306C21.5235 15.5226 21.5235 16.4818 20.9314 17.0728L18.8582 19.1461C18.3001 19.7041 17.588 20.0852 16.8139 20.2402L13.8836 20.8262C13.3025 20.9423 12.7035 20.9283 12.1284 20.7842L9.4781 20.1222C9.16107 20.0422 8.83603 20.0022 8.50899 20.0022H7.00082" stroke="#FC4C02" stroke-width="1.5" stroke-linecap="round" stroke-linejoin="round"/>
<path d="M13.0015 17.0019H14.4867C15.3238 17.0019 16.0018 16.3238 16.0018 15.4867V15.1837C16.0018 14.4886 15.5288 13.8826 14.8547 13.7145L12.5625 13.1415C12.1894 13.0485 11.8074 13.0015 11.4233 13.0015V13.0015C10.4962 13.0015 9.58912 13.2755 8.81803 13.7906L7.00082 15.0017" stroke="#FC4C02" stroke-width="1.5" stroke-linecap="round" stroke-linejoin="round"/>
<path d="M17.1708 5.15579C18.2792 6.26422 18.2792 8.06135 17.1708 9.16978C16.0624 10.2782 14.2652 10.2782 13.1568 9.16978C12.0484 8.06135 12.0484 6.26422 13.1568 5.15579C14.2652 4.04735 16.0624 4.04735 17.1708 5.15579" stroke="#FC4C02" stroke-width="1.5" stroke-linecap="round" stroke-linejoin="round"/>
<path d="M14.6326 4.37551C14.5396 3.81045 14.2816 3.26739 13.8456 2.83134C12.7374 1.72321 10.9402 1.72321 9.8321 2.83134C8.72398 3.93946 8.72398 5.73667 9.8321 6.84479C10.5222 7.53487 11.4783 7.7939 12.3694 7.62488" stroke="#FC4C02" stroke-width="1.5" stroke-linecap="round" stroke-linejoin="round"/>
</svg>
