<svg width="16" height="16" viewBox="0 0 16 16" fill="none" xmlns="http://www.w3.org/2000/svg">
<path d="M2.81331 7.25977V13.9264" stroke="#22243E" stroke-linecap="round" stroke-linejoin="round"/>
<path d="M13.1867 7.25977V13.9264" stroke="#22243E" stroke-linecap="round" stroke-linejoin="round"/>
<path d="M9.48134 13.9259V10.9633C9.48134 10.1453 8.81801 9.48193 8.00001 9.48193C7.18201 9.48193 6.51868 10.1453 6.51868 10.9633V13.9259" stroke="#22243E" stroke-linecap="round" stroke-linejoin="round"/>
<path d="M1.33337 13.9266H14.6667" stroke="#22243E" stroke-linecap="round" stroke-linejoin="round"/>
<path fill-rule="evenodd" clip-rule="evenodd" d="M2.86734 7.25906C1.73534 7.25106 0.997342 6.1304 1.48801 5.1644L2.63134 2.91306C2.89201 2.39973 3.44001 2.07373 4.04134 2.07373H11.9587C12.56 2.07373 13.108 2.39973 13.3687 2.91306L14.5127 5.1644C15.0033 6.1304 14.2653 7.25106 13.1333 7.25906C12.1887 7.25906 11.4227 6.61373 11.4227 5.81706V5.78506C11.4227 6.59906 10.6567 7.25906 9.71201 7.25906C8.76734 7.25906 8.00134 6.59906 8.00134 5.78506C8.00134 6.59906 7.23534 7.25906 6.29068 7.25906C5.34601 7.25906 4.58001 6.59906 4.58001 5.78506V5.81706C4.57801 6.61373 3.81201 7.25906 2.86734 7.25906Z" stroke="#22243E" stroke-linecap="round" stroke-linejoin="round"/>
</svg>
